# xmcd
#
# Track frame offsets:
#	182
#	19650
#	48545
#	67235
#	85975
#	98345
#	115922
#	129815
#	158717
#	178050
#	193757
#
# Disc length: 2957 seconds
#
# Revision: 1
# Processed by: cddbd v1.4PL0 Copyright (c) Steve Scherf et al.
# Submitted via: audiograbber 1.81.03
#
DISCID=8c0b8b0b
DTITLE=Luther 'Georgia Boy' Johnson - Lonesome in My Bedroom
DYEAR=1992
DGENRE=Blues
TTITLE0=Hush, Hush
TTITLE1=Long Distance Call
TTITLE2=Jammin' with Willie
TTITLE3=Little Queenie
TTITLE4=Please Give me That Love
TTITLE5=They Call Me the Popcorn Man
TTITLE6=She's My Baby
TTITLE7=Lonesome in My Bedroom
TTITLE8=Rock Me Slow and Easy
TTITLE9=Please Don't Take My Baby Nowhere
TTITLE10=Honey Bee
EXTD=
EXTT0=
EXTT1=
EXTT2=
EXTT3=
EXTT4=
EXTT5=
EXTT6=
EXTT7=
EXTT8=
EXTT9=
EXTT10=
PLAYORDER=
